<svg width="6" height="9" viewBox="0 0 6 9" fill="none" xmlns="http://www.w3.org/2000/svg">
<path fill-rule="evenodd" clip-rule="evenodd" d="M0.146447 3.01557C0.341709 2.83481 0.658291 2.83481 0.853553 3.01557L3 5.00256L5.14645 3.01557C5.34171 2.83481 5.65829 2.83481 5.85355 3.01557C6.04882 3.19632 6.04882 3.48939 5.85355 3.67015L3.35355 5.98443C3.15829 6.16519 2.84171 6.16519 2.64645 5.98443L0.146447 3.67015C-0.0488155 3.48939 -0.0488155 3.19632 0.146447 3.01557Z" fill="#F7F7F7"/>
<path fill-rule="evenodd" clip-rule="evenodd" d="M0.146447 0.135527C0.341709 -0.0452296 0.658291 -0.0452296 0.853553 0.135527L3 2.12252L5.14645 0.135527C5.34171 -0.0452296 5.65829 -0.0452296 5.85355 0.135527C6.04882 0.316284 6.04882 0.609349 5.85355 0.790106L3.35355 3.10439C3.15829 3.28515 2.84171 3.28515 2.64645 3.10439L0.146447 0.790106C-0.0488155 0.609349 -0.0488155 0.316284 0.146447 0.135527Z" fill="#F7F7F7"/>
<path fill-rule="evenodd" clip-rule="evenodd" d="M0.146447 5.89557C0.341709 5.71481 0.658291 5.71481 0.853553 5.89557L3 7.88256L5.14645 5.89557C5.34171 5.71481 5.65829 5.71481 5.85355 5.89557C6.04882 6.07632 6.04882 6.36939 5.85355 6.55015L3.35355 8.86443C3.15829 9.04519 2.84171 9.04519 2.64645 8.86443L0.146447 6.55015C-0.0488155 6.36939 -0.0488155 6.07632 0.146447 5.89557Z" fill="#F7F7F7"/>
</svg>
